# xmcd
#
# Track frame offsets:
#	150
#	20922
#	37107
#	75895
#	103200
#	126270
#	148082
#	176955
#	192665
#	215805
#	239407
#	262833
#	284665
#	300953
#	317937
#	336040
#
# Disc length: 4707 seconds
#
# Revision: 0
# Processed by: cddbd v1.5.2PL0 Copyright (c) Steve Scherf et al.
# Submitted via: EZCDAudioConverter 2.1.7.1
#
DISCID=fb126110
DTITLE=Mo' Horizons - Ten Years Of... 1/2
DYEAR=1900
DGENRE=
TTITLE0=Oye! ... Bossa
TTITLE1=Foto Viva [Radio Edit]
TTITLE2=Flyin' Away
TTITLE3=Fever 99
TTITLE4=Bosshannover
TTITLE5=Remember Tomorrow
TTITLE6=Superworld [Bassic Instinct Remix]
TTITLE7=Pé Na Éstrada [Radio Edit]
TTITLE8=Drum'n Boogaloo
TTITLE9=So Ma Guisee
TTITLE10=A Touch Of Hope
TTITLE11=Mambuloo
TTITLE12=Ai Mi Morena
TTITLE13=My Bombombomb [Radio Edit]
TTITLE14=Brandnew Shoes [Radio Edit]
TTITLE15=Green Day [Radio Edit]
EXTD=
EXTT0=
EXTT1=
EXTT2=
EXTT3=
EXTT4=
EXTT5=
EXTT6=
EXTT7=
EXTT8=
EXTT9=
EXTT10=
EXTT11=
EXTT12=
EXTT13=
EXTT14=
EXTT15=
PLAYORDER=
